<?xml version="1.0" encoding="UTF-8" standalone="no"?>
<!-- Created with Inkscape (http://www.inkscape.org/) -->

<svg
   width="512"
   height="512"
   viewBox="0 0 135.46667 135.46667"
   version="1.1"
   id="svg1"
   xml:space="preserve"
   inkscape:version="1.3.2 (091e20e, 2023-11-25, custom)"
   sodipodi:docname="axe.svg"
   inkscape:export-filename="axe.png"
   inkscape:export-xdpi="96"
   inkscape:export-ydpi="96"
   xmlns:inkscape="http://www.inkscape.org/namespaces/inkscape"
   xmlns:sodipodi="http://sodipodi.sourceforge.net/DTD/sodipodi-0.dtd"
   xmlns="http://www.w3.org/2000/svg"
   xmlns:svg="http://www.w3.org/2000/svg"><sodipodi:namedview
     id="namedview1"
     pagecolor="#000000"
     bordercolor="#000000"
     borderopacity="0.25"
     inkscape:showpageshadow="2"
     inkscape:pageopacity="0.0"
     inkscape:pagecheckerboard="0"
     inkscape:deskcolor="#d1d1d1"
     inkscape:document-units="mm"
     inkscape:zoom="1.4142136"
     inkscape:cx="470.57956"
     inkscape:cy="260.56885"
     inkscape:window-width="2560"
     inkscape:window-height="1369"
     inkscape:window-x="2552"
     inkscape:window-y="-8"
     inkscape:window-maximized="1"
     inkscape:current-layer="g3"
     inkscape:export-bgcolor="#00000000" /><defs
     id="defs1" /><g
     inkscape:label="Lager 1"
     inkscape:groupmode="layer"
     id="layer1"><g
       id="g2"
       transform="matrix(1.1116906,0.64183484,-0.64183484,1.1116906,32.412235,-45.520213)"><g
         id="g3"
         transform="matrix(0.97938246,0,0,0.97938246,1.2837357,3.584346)"><rect
           style="fill:#ffe9c8;fill-opacity:1;stroke:#000000;stroke-width:2.7787"
           id="rect1"
           width="10.716263"
           height="90.647949"
           x="62.486774"
           y="27.403095"
           rx="0.84427559"
           ry="1.0161474" /><path
           id="rect2"
           style="fill:#e7e7e7;fill-opacity:1;stroke:#000000;stroke-width:3.9686"
           d="M 40.012685,45.893203 68.046319,0.82303461 c 0.408701,-0.65707559 1.066755,-0.65707559 1.475456,0 L 97.555408,45.893199 c 0.408701,0.657074 0.408701,1.715039 0,2.372114 l -57.542723,5e-6 c -0.408702,-0.657077 -0.408702,-1.715039 0,-2.372115 z"
           sodipodi:nodetypes="ssssccs" /><path
           id="path2"
           style="fill:#cbcbcb;fill-opacity:1;stroke:#000000;stroke-width:2.98022;stroke-opacity:1"
           d="m 46.996023,46.410734 21.05185,-33.845432 c 0.306914,-0.493431 0.80108,-0.493431 1.107994,0 l 21.05185,33.845428 c 0.306914,0.49343 0.306914,1.287908 0,1.781339 l -43.211694,3e-6 c -0.306915,-0.49343 -0.306915,-1.287908 0,-1.781338 z"
           sodipodi:nodetypes="ssssccs" /></g></g></g></svg>
