<?xml version="1.0" encoding="UTF-8" standalone="no"?>
<!-- Created with Inkscape (http://www.inkscape.org/) -->

<svg
   width="512"
   height="512"
   viewBox="0 0 135.46667 135.46667"
   version="1.1"
   id="svg1"
   xml:space="preserve"
   inkscape:version="1.3.2 (091e20e, 2023-11-25, custom)"
   sodipodi:docname="axe.svg"
   inkscape:export-filename="axe.png"
   inkscape:export-xdpi="96"
   inkscape:export-ydpi="96"
   xmlns:inkscape="http://www.inkscape.org/namespaces/inkscape"
   xmlns:sodipodi="http://sodipodi.sourceforge.net/DTD/sodipodi-0.dtd"
   xmlns="http://www.w3.org/2000/svg"
   xmlns:svg="http://www.w3.org/2000/svg"><sodipodi:namedview
     id="namedview1"
     pagecolor="#797979"
     bordercolor="#000000"
     borderopacity="0.25"
     inkscape:showpageshadow="2"
     inkscape:pageopacity="0.0"
     inkscape:pagecheckerboard="0"
     inkscape:deskcolor="#d1d1d1"
     inkscape:document-units="mm"
     inkscape:zoom="1.4142136"
     inkscape:cx="470.57955"
     inkscape:cy="260.56884"
     inkscape:window-width="2560"
     inkscape:window-height="1369"
     inkscape:window-x="2552"
     inkscape:window-y="-8"
     inkscape:window-maximized="1"
     inkscape:current-layer="layer1"
     inkscape:export-bgcolor="#00000000" /><defs
     id="defs1" /><g
     inkscape:label="Lager 1"
     inkscape:groupmode="layer"
     id="layer1"><g
       id="g2"
       transform="matrix(1.1116906,0.64183484,-0.64183484,1.1116906,32.412235,-45.520213)" /><path
       id="path1"
       style="color:#000000;fill:#f8ab72;stroke:none;-inkscape-stroke:none"
       d="M 63.001683 27.482709 C 62.698456 27.63656 62.486835 27.997076 62.486835 28.419285 L 62.486767 45.556357 L 73.202904 45.55621 L 73.202973 28.419138 C 73.202973 27.856192 72.826315 27.403012 72.358588 27.403012 L 63.331144 27.403084 C 63.214212 27.403084 63.102758 27.431426 63.001683 27.482709 z M 62.486831 48.536529 L 62.486692 117.03491 C 62.486692 117.59784 62.863349 118.05103 63.331077 118.05103 L 72.358521 118.05096 C 72.826248 118.05096 73.203035 117.59805 73.203035 117.03511 L 73.203175 48.536738 L 62.486831 48.536529 z "
       transform="matrix(1.0887703,0.62860179,-0.62860179,1.0887703,31.538794,-40.711583)" /><path
       id="path6"
       style="color:#000000;fill:#d7f7ff;-inkscape-stroke:none"
       d="M 68.391741 0.45361862 C 68.266189 0.53575298 68.148512 0.65868695 68.046337 0.82295568 L 40.012856 45.893196 C 39.604154 46.550272 39.604011 47.608409 40.012712 48.265486 L 46.197182 48.265531 L 45.928358 47.833618 C 45.24256 46.731054 45.242251 45.580717 45.928049 44.478154 L 66.981061 10.632548 C 67.323954 10.081265 67.986949 9.5601119 68.799119 9.5601092 C 69.611283 9.5601101 70.276692 10.081277 70.61959 10.63256 L 91.670602 44.478108 C 92.356398 45.580673 92.356359 46.731212 91.670554 47.833778 L 91.402006 48.265534 L 97.555528 48.265411 C 97.964229 47.608336 97.964017 46.5504 97.555316 45.893327 L 69.521969 0.82296213 C 69.215443 0.33015593 68.768397 0.20721552 68.391741 0.45361862 z M 68.79932 13.349449 L 48.767972 45.556262 L 88.832479 45.556159 L 68.79932 13.349449 z "
       transform="matrix(1.0887703,0.62860179,-0.62860179,1.0887703,31.538794,-40.711583)" /><path
       id="path4"
       style="color:#000000;fill:#2dd7ff;stroke:none;stroke-width:0;stroke-dasharray:none"
       d="M 68.799471 13.348887 L 48.768328 45.556056 L 88.832835 45.555954 L 68.799471 13.348887 z "
       transform="matrix(1.0887703,0.62860179,-0.62860179,1.0887703,31.538794,-40.711583)" /></g></svg>
