<?xml version="1.0" encoding="UTF-8" standalone="no"?>
<svg
   viewBox="0 0 512 512"
   style="height: 512px; width: 512px;"
   version="1.1"
   id="svg2"
   sodipodi:docname="bolt.svg"
   inkscape:version="1.3.2 (091e20e, 2023-11-25, custom)"
   inkscape:export-filename="bolt.png"
   inkscape:export-xdpi="96"
   inkscape:export-ydpi="96"
   xmlns:inkscape="http://www.inkscape.org/namespaces/inkscape"
   xmlns:sodipodi="http://sodipodi.sourceforge.net/DTD/sodipodi-0.dtd"
   xmlns="http://www.w3.org/2000/svg"
   xmlns:svg="http://www.w3.org/2000/svg">
  <defs
     id="defs2" />
  <sodipodi:namedview
     id="namedview2"
     pagecolor="#ffffff"
     bordercolor="#000000"
     borderopacity="0.25"
     inkscape:showpageshadow="2"
     inkscape:pageopacity="0.0"
     inkscape:pagecheckerboard="0"
     inkscape:deskcolor="#d1d1d1"
     inkscape:zoom="1.6199927"
     inkscape:cx="166.35878"
     inkscape:cy="328.70519"
     inkscape:window-width="2560"
     inkscape:window-height="1369"
     inkscape:window-x="2552"
     inkscape:window-y="-8"
     inkscape:window-maximized="1"
     inkscape:current-layer="svg2" />
  <g
     id="g6">
    <path
       d="M 0,0 H 512 V 512 H 0 Z"
       fill="#000000"
       fill-opacity="1"
       id="path1"
       style="display:inline"
       inkscape:label="path1" />
  </g>
  <g
     id="g7"
     transform="translate(11.306992,14.146531)"
     style="fill:#ffffff;fill-opacity:1">
    <path
       style="fill:#ffffff;fill-opacity:1"
       d="m 13.990784,1.3418585 c -21.5799996,46.3800005 0.5,85.7170005 40.876,98.5940005 37.1,11.840001 60.144996,33.247001 49.529996,82.750001 -7.981996,37.263 7.447,72.355 50.064,80.937 23.717,4.78 50.425,32.762 55,76.376 -2.76,71.81 50.795,134.308 123.28,141.656 75.402,7.644 142.733,-47.288 150.376,-122.687 3.822,-37.7 -8.017,-73.352 -30.22,-100.563 -0.008,-0.01 -0.02,-0.02 -0.03,-0.03 -26.01,-45.997 -144.995,-100.207 -187.25,-96.094 -43.27,4.212 -72.128,-8.77 -83.844,-45.032 -15.56,-48.187001 -45.912,-53.741001 -84.248996,-46.907001 -34.144,6.09 -69.725,-22.114 -83.53,-69.0000005 z M 118.89778,83.247859 c 30.423,-0.038 55.034,29.160001 49.563,61.280001 -13.876,-19.435 -33.808,-41.88 -75.937996,-53.780001 8.896996,-5.175 17.856996,-7.49 26.375996,-7.5 z m 17.25,57.875001 c 2.112,-0.166 4.53,0.692 7.594,3.157 4.09,3.288 8.36,9.51 10.75,17.625 2.394,8.117 2.367,16.305 0.72,22.313 -1.647,6.008 -4.567,9.222 -7.188,10.25 -2.62,1.028 -5.537,0.63 -9.625,-2.656 -4.087,-3.29 -8.357,-9.51 -10.75,-17.626 -2.392,-8.117 -2.366,-16.305 -0.718,-22.313 1.646,-6.007 4.565,-9.252 7.186,-10.28 0.655,-0.257 1.328,-0.413 2.03,-0.47 z m 116.75,41.626 c 32.99,-0.243 66.205,13.118 73.22,43.53 2.483,9.94 5.295,18.77 8.343,26.533 0.537,5.562 1.883,11.263 4.03,16.874 4.208,10.99 10.827,19.884 19.064,25.5 8.236,5.615 19.05,7.832 28.47,3.25 9.417,-4.583 14.638,-14.054 16.56,-24.125 1.4,-7.336 1.18,-15.307 -0.655,-23.345 85.45,65.1 69.966,143.12 19.624,184.72 -52.91,43.717 -137.897,49.615 -175.375,-40.5 1.1,0.956 2.394,1.658 3.81,2.155 6.656,3.853 14.364,6.063 22.564,6.063 24.892,0 45.28,-20.358 45.28,-45.25 0,-22.926 -17.29,-42 -39.468,-44.875 -26.686,-18.043 -52.14,-29.055 -47.687,-59.813 5.098,5.817 11.21,10.258 17.843,13 9.664,3.996 20.89,4.263 30.312,-1.156 9.42,-5.42 14.826,-15.268 16.188,-25.626 1.36,-10.358 -0.985,-21.562 -6.907,-31.78 -5.922,-10.22 -14.492,-17.818 -24.156,-21.814 -3.195,-1.32 -6.553,-2.216 -9.97,-2.656 -0.37,-0.223 -0.715,-0.468 -1.092,-0.688 z m -132.687,18.623 c 11.856,21.624 105.586,9.302 92.344,100.19 -22.438,-80.46 -92.42,-36.018 -92.344,-100.19 z m 129.063,0.376 c 2.316,-0.033 4.845,0.502 7.562,1.625 5.434,2.248 11.147,7.042 15.125,13.907 3.978,6.866 5.292,14.178 4.53,19.97 -0.76,5.79 -3.25,9.735 -6.967,11.874 -3.72,2.14 -8.41,2.31 -13.844,0.064 -5.435,-2.247 -11.148,-7.04 -15.126,-13.906 -3.978,-6.866 -5.293,-14.21 -4.53,-20 0.76,-5.792 3.25,-9.705 6.967,-11.844 1.86,-1.07 3.966,-1.654 6.282,-1.688 z m 113.375,27.563 c 1.912,-0.07 4.124,0.653 6.968,2.593 4.334,2.955 9.13,8.847 12.156,16.75 3.026,7.902 3.638,16.036 2.47,22.156 -1.17,6.118 -3.844,9.58 -6.376,10.81 -2.53,1.233 -5.447,1.08 -9.78,-1.874 -4.335,-2.955 -9.132,-8.816 -12.157,-16.72 -3.027,-7.9 -3.638,-16.067 -2.47,-22.186 1.168,-6.12 3.843,-9.58 6.375,-10.813 0.633,-0.307 1.303,-0.545 2,-0.656 0.26,-0.04 0.54,-0.05 0.813,-0.06 z m -90.094,102.25 c 14.79,0 26.594,11.8 26.594,26.592 0,14.792 -11.803,26.563 -26.594,26.563 -14.79,0 -26.594,-11.77 -26.594,-26.563 0,-14.79 11.803,-26.593 26.594,-26.593 z"
       id="path2" />
    <ellipse
       style="fill:#ffffff;fill-opacity:1;stroke:#000000;stroke-width:0"
       id="path3"
       cx="272.09406"
       cy="358.53403"
       rx="32.462376"
       ry="29.939964" />
    <ellipse
       style="fill:#ffffff;fill-opacity:1;stroke:#000000;stroke-width:0"
       id="ellipse3"
       cx="367.24835"
       cy="256.8132"
       rx="29.843449"
       ry="29.959133" />
    <ellipse
       style="fill:#ffffff;fill-opacity:1;stroke:#000000;stroke-width:0"
       id="ellipse4"
       cx="256.38049"
       cy="222.33067"
       rx="29.843449"
       ry="29.959133" />
    <path
       id="ellipse5"
       style="fill:#ffffff;fill-opacity:1;stroke:#000000;stroke-width:0"
       d="m 383.45862,239.54717 c 33.51948,17.69861 29.76077,45.35238 29.77349,80.97504 -1.2e-4,54.88558 -38.63959,95.01415 -98.14923,95.01402 -39.38992,-0.10534 -69.90415,-20.46234 -79.53637,-37.54707 9.60197,57.24063 45.97826,92.50388 108.77972,92.54548 70.35722,2.7e-4 127.39304,-52.60386 127.39257,-117.49413 -0.0182,-57.01015 -27.38499,-103.59926 -88.26018,-113.49334 z"
       sodipodi:nodetypes="ccccccc" />
  </g>
</svg>
