<?xml version="1.0" encoding="UTF-8" standalone="no"?>
<svg
   viewBox="0 0 512 512"
   style="height: 512px; width: 512px;"
   version="1.1"
   id="svg2"
   sodipodi:docname="laser-blast.svg"
   inkscape:version="1.3.2 (091e20e, 2023-11-25, custom)"
   inkscape:export-filename="laser.png"
   inkscape:export-xdpi="96"
   inkscape:export-ydpi="96"
   xmlns:inkscape="http://www.inkscape.org/namespaces/inkscape"
   xmlns:sodipodi="http://sodipodi.sourceforge.net/DTD/sodipodi-0.dtd"
   xmlns="http://www.w3.org/2000/svg"
   xmlns:svg="http://www.w3.org/2000/svg">
  <defs
     id="defs2" />
  <sodipodi:namedview
     id="namedview2"
     pagecolor="#000000"
     bordercolor="#000000"
     borderopacity="0.25"
     inkscape:showpageshadow="2"
     inkscape:pageopacity="0.0"
     inkscape:pagecheckerboard="0"
     inkscape:deskcolor="#d1d1d1"
     inkscape:zoom="1.6199927"
     inkscape:cx="250.92706"
     inkscape:cy="268.82837"
     inkscape:window-width="2560"
     inkscape:window-height="1369"
     inkscape:window-x="2552"
     inkscape:window-y="-8"
     inkscape:window-maximized="1"
     inkscape:current-layer="svg2" />
  <g
     class=""
     transform="rotate(-90,256,256)"
     id="g2">
    <path
       style="fill:#d48dff;fill-opacity:1"
       d="m 227.595,335.31 c -3.526,0 -7.06,1.34 -9.75,4.032 -5.38,5.38 -5.38,14.087 0,19.47 5.38,5.38 14.12,5.38 19.5,-0.002 5.38,-5.382 5.38,-14.087 0,-19.468 -2.69,-2.69 -6.224,-4.03 -9.75,-4.03 z"
       id="path17" />
    <path
       style="fill:#d48dff;fill-opacity:1"
       d="m 357.063,262.22 c -3.525,0 -7.028,1.34 -9.718,4.03 -5.38,5.382 -5.38,14.118 0,19.5 5.38,5.382 14.09,5.382 19.47,0 5.38,-5.382 5.378,-14.118 -0.002,-19.5 -2.69,-2.69 -6.224,-4.03 -9.75,-4.03 z"
       id="path16" />
    <path
       style="fill:#d48dff;fill-opacity:1"
       d="m 244.281,161.562 -16.78,16.782 c 0.252,-0.004 0.498,-0.03 0.75,-0.03 13.752,0 27.486,5.262 38.03,15.81 21.093,21.1 21.096,55.055 0,76.157 -21.09,21.1 -55,21.1 -76.092,0 l -0.5,-0.53 c -10.39,-10.67 -15.5,-24.498 -15.313,-38.28 l -16.78,16.78 c 2.906,12.924 9.352,25.194 19.374,35.22 0.235,0.235 0.48,0.454 0.718,0.686 0.136,0.156 0.267,0.315 0.406,0.47 -8.723,9.11 -8.618,23.566 0.344,32.53 9.082,9.086 23.823,9.086 32.906,0 2.04,-2.04 3.626,-4.36 4.75,-6.844 22.125,7.47 43.827,4.068 73.687,12.5 l 29.783,29.782 c -3.636,6.71 -2.64,15.265 3.03,20.937 5.67,5.673 14.23,6.67 20.938,3.033 L 462.94,495.969 h 32.03 V 467 L 323.157,295.187 c -5.594,-15.51 -7.705,-28.616 -9.406,-40.656 6.178,2.096 13.263,0.677 18.188,-4.25 6.91,-6.912 6.91,-18.118 0,-25.03 -6.542,-6.544 -16.924,-6.847 -23.875,-1 -3.867,-12.71 -10.74,-25.536 -25.188,-40.406 -1.645,-1.692 -3.408,-3.25 -5.22,-4.688 -9.666,-9.018 -21.237,-14.86 -33.374,-17.594 z"
       id="path15" />
    <path
       style="fill:#d48dff;fill-opacity:1"
       d="m 332.125,151.312 c -6.366,0 -12.706,2.423 -17.563,7.282 -9.713,9.717 -9.713,25.47 0,35.187 9.714,9.718 25.444,9.718 35.157,0 9.713,-9.717 9.712,-25.47 0,-35.186 -4.858,-4.86 -11.23,-7.28 -17.595,-7.28 z"
       id="path14" />
    <path
       style="fill:#c6c6c6;fill-opacity:1"
       d="m 206.78,123.906 -84.905,84.906 24.344,24.375 84.905,-84.937 z"
       id="path13" />
    <path
       style="fill:#c6c6c6;fill-opacity:1"
       d="m 19.5,82.844 v 23.625 l 39.28,39.28 11.814,-11.813 z"
       id="path12" />
    <path
       style="fill:#c6c6c6;fill-opacity:1"
       d="M 176.438,54.5 52.876,178.063 89.53,214.72 213.126,91.124 176.437,54.5 Z"
       id="path11" />
    <path
       style="fill:#c6c6c6;fill-opacity:1"
       d="M 75.03,18.625 130.47,74.063 143.688,60.813 101.5,18.624 H 75.03 Z"
       id="path10" />
    <path
       style="fill:#c6c6c6;fill-opacity:1"
       d="m 19.5,18.625 v 37.78 L 83.813,120.719 117.25,87.279 48.594,18.624 H 19.5 Z"
       id="path2" />
  </g>
</svg>
