<?xml version="1.0" encoding="UTF-8" standalone="no"?>
<svg
   viewBox="0 0 512 512"
   style="height: 512px; width: 512px;"
   version="1.1"
   id="svg2"
   sodipodi:docname="chemical-upgrade.svg"
   inkscape:export-filename="chemical-upgrade.png"
   inkscape:export-xdpi="96"
   inkscape:export-ydpi="96"
   inkscape:version="1.3.2 (091e20e, 2023-11-25, custom)"
   xmlns:inkscape="http://www.inkscape.org/namespaces/inkscape"
   xmlns:sodipodi="http://sodipodi.sourceforge.net/DTD/sodipodi-0.dtd"
   xmlns="http://www.w3.org/2000/svg"
   xmlns:svg="http://www.w3.org/2000/svg">
  <defs
     id="defs2" />
  <sodipodi:namedview
     id="namedview2"
     pagecolor="#000000"
     bordercolor="#000000"
     borderopacity="0.25"
     inkscape:showpageshadow="2"
     inkscape:pageopacity="0.0"
     inkscape:pagecheckerboard="0"
     inkscape:deskcolor="#d1d1d1"
     inkscape:zoom="2.2910156"
     inkscape:cx="256"
     inkscape:cy="256"
     inkscape:window-width="2560"
     inkscape:window-height="1369"
     inkscape:window-x="-8"
     inkscape:window-y="-8"
     inkscape:window-maximized="1"
     inkscape:current-layer="svg2" />
  <g
     class=""
     transform="translate(0,0)"
     style=""
     id="g2">
    <path
       style="fill:#ffe5c9;fill-opacity:1"
       d="M 81.03,27.05 54,54.09 26.97,81.14 46.22,98.54 98.53,46.31 Z"
       id="path2" />
  </g>
  <path
     id="path3"
     style="height:512px;width:512px;fill:#ffffff;fill-opacity:1"
     d="M 128.09961 44.859375 C 119.19962 44.959375 111.30078 51.640472 108.30078 54.480469 L 54.390625 108.40039 C 50.040629 112.90039 36.790093 129.00001 51.580078 142.5 C 65.210064 154.39999 77.839066 143.70078 81.789062 139.80078 C 82.559062 139.10078 82.949219 138.5 82.949219 138.5 C 82.949219 138.5 158.10042 201.40004 186.90039 241 C 194.20038 254.19999 199.5 266.70041 199.5 282.40039 C 190.80001 364.20031 166.89923 385.9004 175.19922 393.40039 C 248.89915 467.20032 337.80078 484.90039 337.80078 484.90039 L 411.30078 411.40039 L 485 337.80078 C 485 337.80078 467.00071 249.09914 393.30078 175.19922 C 385.70079 167.09923 364.0007 190.99962 282.30078 199.59961 C 266.5008 199.59961 254.00038 194.39999 240.90039 187 C 210.10042 164.50002 165.1992 113.9992 146.69922 92.949219 L 131.90039 107.59961 C 145.10038 122.49959 182.09965 162.59925 218.59961 194.19922 C 211.19962 192.29922 200.69922 198.59961 200.69922 198.59961 C 186.89923 187.69962 133.19921 134.99998 119.69922 119.5 L 110.5 129 L 101.59961 120.09961 L 138.5 83.039062 C 138.5 83.039062 138.79922 82.67039 139.69922 81.900391 C 143.49921 77.940395 154.1996 65.309674 142.59961 51.679688 C 137.89961 46.589693 132.8996 44.819375 128.09961 44.859375 z M 386.69922 190.30078 L 386.80078 190.30078 C 407.70076 212.70076 425.20001 236.79924 439 262.19922 C 451.49999 285.5992 460.79962 310.19924 466.59961 335.19922 L 335.19922 466.80078 L 335 466.80078 C 310.20002 460.90079 285.59959 451.70038 262.09961 438.90039 C 236.49963 425.3004 212.49959 407.89998 190.09961 387 L 190.09961 386.69922 C 206.19959 348.19926 220.7996 296.90075 213.59961 267.80078 L 213.40039 267.40039 L 213.69922 267.5 C 227.39921 272.79999 249.6 250.49961 250 250.09961 C 250.3 249.79961 272.69999 227.59999 267.5 214 L 267.30078 213.59961 L 267.69922 213.69922 C 296.59919 220.79921 347.99926 206.30077 386.69922 190.30078 z M 250.90039 208.5 C 252.90039 208.5 254.49922 208.99922 255.69922 210.19922 C 261.19921 215.69921 252.40077 230.40001 241.30078 241.5 C 230.30079 252.49999 215.69921 261.30078 210.19922 255.80078 C 204.59922 250.40079 213.30001 235.4996 224.5 224.59961 C 233.09999 215.89962 243.9004 208.7 250.90039 208.5 z " />
  <path
     id="path10-6"
     style="fill:#bdff40;fill-opacity:1"
     d="m 386.69961,190.3 c -38.69996,15.99999 -90.10003,30.49843 -119,23.39844 l -0.39844,-0.0996 0.19922,0.40038 c 5.19999,13.59999 -17.2,35.79961 -17.5,36.09961 -0.4,0.4 -22.60079,22.70038 -36.30078,17.40039 l -0.29883,-0.0996 0.19922,0.40039 c 7.19999,29.09997 -7.40002,80.39848 -23.5,118.89844 v 0.30077 c 22.39998,20.89998 46.40002,38.3004 72,51.90039 23.49998,12.79999 48.10041,22.0004 72.90039,27.90039 h 0.19922 L 466.6,335.19844 c -5.79999,-24.99998 -15.09962,-49.60002 -27.59961,-73 C 425.2004,236.79846 407.70115,212.69998 386.80117,190.3 Z m -50.79883,42.19922 c 28.09997,-0.1 49.69922,16.89923 55.19922,28.69922 11.19999,23.99997 -31.20003,34.39999 -58.5,30 -29.89997,-4.6 -53.99958,-40.09923 -21.59961,-54.19922 8.69999,-3.2 17.0004,-4.5 24.90039,-4.5 z m -79.09961,63.19922 c 14.89999,0.3 31.29883,17.40002 34.29883,37 4.39999,27.29997 -6.00002,69.70038 -30,58.40039 -15.09999,-6.89999 -38.80038,-40.40043 -24.40039,-79.90039 4.89999,-11.09999 12.30157,-15.6 20.10156,-15.5 z M 410.1,302.09883 c 11.59999,-0.2 17.70117,3.80078 17.70117,3.80078 25.09998,11.09999 29.79995,39.09963 -17,57.09961 -13.49999,5.09999 -21.00157,6.59923 -31.10156,16.69922 -10.29999,10.19999 -11.69844,17.60118 -16.89844,31.20117 -17.89998,46.79995 -45.80157,42.09959 -57.10156,17.09961 0,0 -20.49956,-32.40006 34.90039,-87.5 30.99997,-31.09997 54.70001,-38.20039 69.5,-38.40039 z m -78.5,3 c 11.39999,0.3 27.5996,11.49961 21.09961,13.09961 -16.39998,2.9 -34.89843,1.70155 -29.89844,-8.89844 1.8,-3.1 4.99883,-4.20117 8.79883,-4.20117 z m -19.38477,16.98242 c 0.13106,2e-4 0.25977,0.005 0.38477,0.0176 7.29999,0.4 7.9,16.40119 5.5,30.70117 -2.2,8.59999 -21.39999,-22.9004 -9,-29.90039 1.1375,-0.525 2.19785,-0.81973 3.11523,-0.81836 z" />
</svg>
