<?xml version="1.0" encoding="UTF-8" standalone="no"?>
<svg
   viewBox="0 0 512 512"
   style="height: 512px; width: 512px;"
   version="1.1"
   id="svg2"
   sodipodi:docname="global-upgrade.svg"
   inkscape:version="1.3.2 (091e20e, 2023-11-25, custom)"
   inkscape:export-filename="global-upgrade.png"
   inkscape:export-xdpi="96"
   inkscape:export-ydpi="96"
   xmlns:inkscape="http://www.inkscape.org/namespaces/inkscape"
   xmlns:sodipodi="http://sodipodi.sourceforge.net/DTD/sodipodi-0.dtd"
   xmlns="http://www.w3.org/2000/svg"
   xmlns:svg="http://www.w3.org/2000/svg">
  <defs
     id="defs2" />
  <sodipodi:namedview
     id="namedview2"
     pagecolor="#000000"
     bordercolor="#000000"
     borderopacity="0.25"
     inkscape:showpageshadow="2"
     inkscape:pageopacity="0.0"
     inkscape:pagecheckerboard="0"
     inkscape:deskcolor="#d1d1d1"
     inkscape:zoom="1.6199927"
     inkscape:cx="154.63033"
     inkscape:cy="226.23559"
     inkscape:window-width="2560"
     inkscape:window-height="1369"
     inkscape:window-x="2552"
     inkscape:window-y="-8"
     inkscape:window-maximized="1"
     inkscape:current-layer="svg2" />
  <path
     style="display:inline;fill:#ffffff;fill-opacity:1"
     d="m 253.352,19.617 -52.18,115.475 27.2,0.002 -24.257,74.123 -65.638,0.156 6.18,-19.02 -125.967,13.933 93.718,85.324 7.63,-23.48 53.017,38.708 -21.047,65.28 -15.735,-11.43 -25.652,124.097 110.103,-62.744 -21.946,-15.942 55.584,-40.213 60.472,43.748 -17.08,12.408 110.102,62.745 -25.65,-124.098 -23.638,17.172 -22.898,-71.022 53.016,-38.707 7.628,23.48 93.717,-85.323 -125.966,-13.935 6.18,19.02 -65.64,-0.155 -24.256,-74.12 25.205,0.003 -52.2,-115.483 z"
     id="path2" />
  <path
     style="height:512px;width:512px;fill:#000000;fill-opacity:1"
     d="m 248.035,135.097 h 12.654 l 30.373,92.747 85.253,0.217 6.288,19.352 -68.854,50.29 28.914,89.712 -11.94,8.674 -76.363,-55.233 -71.475,51.698 -14.977,-10.88 27.065,-83.972 -68.856,-50.288 6.287,-19.35 85.256,-0.218 30.375,-92.748 z"
     id="path3" />
  <path
     style="height:512px;width:512px;fill:#ff553d;fill-opacity:1"
     d="m 208.78,316.863 -13.41,41.596 35.353,-25.565 c -8.484,-3.628 -15.97,-9.155 -21.942,-16.032 z"
     id="path9" />
  <path
     style="height:512px;width:512px;fill:#ff553d;fill-opacity:1"
     d="m 299.923,316.733 c -5.968,6.912 -13.462,12.47 -21.96,16.12 l 35.413,25.606 z"
     id="path8" />
  <path
     style="height:512px;width:512px;fill:#ff553d;fill-opacity:1"
     d="m 305.811,246.123 c 4.71,7.712 7.722,16.555 8.55,26.006 l 35.482,-25.903 -44.03,-0.104 z"
     id="path7" />
  <path
     style="height:512px;width:512px;fill:#ff553d;fill-opacity:1"
     d="m 202.779,246.123 -43.878,0.104 35.336,25.794 c 0.84,-9.41 3.85,-18.214 8.54,-25.897 z"
     id="path6" />
  <path
     style="height:512px;width:512px;fill:#ffffff;fill-opacity:1"
     d="m 254.297,235.787 c -23.097,0 -41.62,18.52 -41.62,41.617 0,23.097 18.523,41.617 41.62,41.617 23.096,0 41.617,-18.52 41.617,-41.616 0,-23.096 -18.52,-41.617 -41.617,-41.617 z"
     id="path5" />
  <path
     style="height:512px;width:512px;fill:#ff553d;fill-opacity:1"
     d="m 254.373,176.857 -13.69,41.81 c 4.38,-1.018 8.932,-1.575 13.614,-1.575 4.74,0 9.347,0.57 13.777,1.615 l -13.7,-41.85 z"
     id="path4" />
</svg>
