<?xml version="1.0" encoding="UTF-8" standalone="no"?>
<svg
   viewBox="0 0 512 512"
   style="height: 512px; width: 512px;"
   version="1.1"
   id="svg2"
   sodipodi:docname="potion-of-madness.svg"
   inkscape:export-filename="potion-of-madness.png"
   inkscape:export-xdpi="96"
   inkscape:export-ydpi="96"
   inkscape:version="1.3.2 (091e20e, 2023-11-25, custom)"
   xmlns:inkscape="http://www.inkscape.org/namespaces/inkscape"
   xmlns:sodipodi="http://sodipodi.sourceforge.net/DTD/sodipodi-0.dtd"
   xmlns="http://www.w3.org/2000/svg"
   xmlns:svg="http://www.w3.org/2000/svg">
  <defs
     id="defs2" />
  <sodipodi:namedview
     id="namedview2"
     pagecolor="#ffffff"
     bordercolor="#000000"
     borderopacity="0.25"
     inkscape:showpageshadow="2"
     inkscape:pageopacity="0.0"
     inkscape:pagecheckerboard="0"
     inkscape:deskcolor="#d1d1d1"
     inkscape:zoom="2.2910156"
     inkscape:cx="256"
     inkscape:cy="256"
     inkscape:window-width="2560"
     inkscape:window-height="1369"
     inkscape:window-x="2552"
     inkscape:window-y="-8"
     inkscape:window-maximized="1"
     inkscape:current-layer="svg2" />
  <path
     d="M0 0h512v512H0z"
     fill="#000"
     fill-opacity="1"
     id="path1" />
  <g
     class=""
     transform="translate(0,0)"
     style=""
     id="g2">
    <path
       style="fill:#ffe5c9;fill-opacity:1"
       d="M 81.03,27.05 54,54.09 26.97,81.14 46.22,98.54 98.53,46.31 Z"
       id="path2" />
  </g>
  <path
     style="height:512px;width:512px;fill:#ffffff;fill-opacity:1"
     d="m 128.1,44.86 c -8.9,0.1 -16.8,6.78 -19.8,9.62 L 54.39,108.4 c -4.35,4.5 -17.6,20.6 -2.81,34.1 13.63,11.9 26.26,1.2 30.21,-2.7 0.77,-0.7 1.16,-1.3 1.16,-1.3 0,0 75.15,62.9 103.95,102.5 7.3,13.2 12.6,25.7 12.6,41.4 -8.7,81.8 -32.6,103.5 -24.3,111 73.7,73.8 162.6,91.5 162.6,91.5 l 73.5,-73.5 73.7,-73.6 c 0,0 -18,-88.7 -91.7,-162.6 -7.6,-8.1 -29.3,15.8 -111,24.4 -15.8,0 -28.3,-5.2 -41.4,-12.6 -30.8,-22.5 -75.7,-73 -94.2,-94.05 l -14.8,14.65 c 13.2,14.9 50.2,55 86.7,86.6 -7.4,-1.9 -17.9,4.4 -17.9,4.4 -13.8,-10.9 -67.5,-63.6 -81,-79.1 l -9.2,9.5 -8.9,-8.9 36.9,-37.06 c 0,0 0.3,-0.37 1.2,-1.14 3.8,-3.96 14.5,-16.59 2.9,-30.22 -4.7,-5.09 -9.7,-6.86 -14.5,-6.82 z"
     id="path3" />
  <path
     style="height:512px;width:512px;fill:#eeffe3;fill-opacity:1"
     d="m 386.7,190.3 h 0.1 c 20.9,22.4 38.4,46.5 52.2,71.9 12.5,23.4 21.8,48 27.6,73 L 335.2,466.8 H 335 c -24.8,-5.9 -49.4,-15.1 -72.9,-27.9 -25.6,-13.6 -49.6,-31 -72,-51.9 v -0.3 c 16.1,-38.5 30.7,-89.8 23.5,-118.9 l -0.2,-0.4 0.3,0.1 c 13.7,5.3 35.9,-17 36.3,-17.4 0.3,-0.3 22.7,-22.5 17.5,-36.1 l -0.2,-0.4 0.4,0.1 c 28.9,7.1 80.3,-7.4 119,-23.4 z"
     id="path10" />
  <path
     style="height:512px;width:512px;fill:#000000;fill-opacity:1"
     d="m 312.6,322.1 c -1,-0.1 -2.2,0.2 -3.5,0.8 -12.4,7 6.8,38.5 9,29.9 2.4,-14.3 1.8,-30.3 -5.5,-30.7 z"
     id="path16" />
  <path
     style="height:512px;width:512px;fill:#000000;fill-opacity:1"
     d="m 331.6,305.1 c -3.8,0 -7,1.1 -8.8,4.2 -5,10.6 13.5,11.8 29.9,8.9 6.5,-1.6 -9.7,-12.8 -21.1,-13.1 z"
     id="path15" />
  <path
     style="height:512px;width:512px;fill:#000000;fill-opacity:1"
     d="m 256.8,295.7 c -7.8,-0.1 -15.2,4.4 -20.1,15.5 -14.4,39.5 9.3,73 24.4,79.9 24,11.3 34.4,-31.1 30,-58.4 -3,-19.6 -19.4,-36.7 -34.3,-37 z"
     id="path13" />
  <path
     style="height:512px;width:512px;fill:#000000;fill-opacity:1"
     d="m 335.9,232.5 c -7.9,0 -16.2,1.3 -24.9,4.5 -32.4,14.1 -8.3,49.6 21.6,54.2 27.3,4.4 69.7,-6 58.5,-30 -5.5,-11.8 -27.1,-28.8 -55.2,-28.7 z"
     id="path12" />
  <path
     style="height:512px;width:512px;fill:#000000;fill-opacity:1"
     d="m 250.9,208.5 c 2,0 3.6,0.5 4.8,1.7 5.5,5.5 -3.3,20.2 -14.4,31.3 -11,11 -25.6,19.8 -31.1,14.3 -5.6,-5.4 3.1,-20.3 14.3,-31.2 8.6,-8.7 19.4,-15.9 26.4,-16.1 z"
     id="path11" />
  <path
     style="height:512px;width:512px;fill:#000000;fill-opacity:1"
     d="m 410.1,302.1 c -14.8,0.2 -38.5,7.3 -69.5,38.4 -55.4,55.1 -34.9,87.5 -34.9,87.5 11.3,25 39.2,29.7 57.1,-17.1 5.2,-13.6 6.6,-21 16.9,-31.2 10.1,-10.1 17.6,-11.6 31.1,-16.7 46.8,-18 42.1,-46 17,-57.1 0,0 -6.1,-4 -17.7,-3.8 z"
     id="path14" />
</svg>
