<?xml version="1.0" encoding="UTF-8" standalone="no"?>
<svg
   viewBox="0 0 512 512"
   style="height: 512px; width: 512px;"
   version="1.1"
   id="svg2"
   sodipodi:docname="processor.svg"
   inkscape:export-filename="processor.png"
   inkscape:export-xdpi="96"
   inkscape:export-ydpi="96"
   inkscape:version="1.3.2 (091e20e, 2023-11-25, custom)"
   xmlns:inkscape="http://www.inkscape.org/namespaces/inkscape"
   xmlns:sodipodi="http://sodipodi.sourceforge.net/DTD/sodipodi-0.dtd"
   xmlns="http://www.w3.org/2000/svg"
   xmlns:svg="http://www.w3.org/2000/svg">
  <defs
     id="defs2" />
  <sodipodi:namedview
     id="namedview2"
     pagecolor="#ffffff"
     bordercolor="#000000"
     borderopacity="0.25"
     inkscape:showpageshadow="2"
     inkscape:pageopacity="0.0"
     inkscape:pagecheckerboard="0"
     inkscape:deskcolor="#d1d1d1"
     inkscape:zoom="2.2910156"
     inkscape:cx="256"
     inkscape:cy="256"
     inkscape:window-width="2560"
     inkscape:window-height="1369"
     inkscape:window-x="2552"
     inkscape:window-y="-8"
     inkscape:window-maximized="1"
     inkscape:current-layer="g2" />
  <path
     d="M0 0h512v512H0z"
     fill="#000"
     fill-opacity="1"
     id="path1" />
  <g
     class=""
     transform="translate(0,0)"
     style=""
     id="g2">
    <path
       style="fill:#d1fffe;fill-opacity:1"
       d="m 304.219,341.53 v 140.064 h 17.655 V 341.53 H 304.22 Z"
       id="path18" />
    <path
       style="fill:#d1fffe;fill-opacity:1"
       d="m 266.125,341.53 v 54.033 h 17.688 l -0.032,-54.032 h -17.655 z"
       id="path17" />
    <path
       style="fill:#d1fffe;fill-opacity:1"
       d="m 228.845,341.53 v 86.564 c -11.013,3.794 -18.94,14.233 -18.94,26.53 0,15.506 12.588,28.095 28.095,28.095 15.507,0 28.063,-12.59 28.063,-28.095 0,-12.53 -8.203,-23.14 -19.532,-26.75 V 341.53 Z"
       id="path16" />
    <path
       style="fill:#d1fffe;fill-opacity:1"
       d="m 192.375,341.53 v 54.033 h 17.688 V 341.53 Z"
       id="path15" />
    <path
       style="fill:#d1fffe;fill-opacity:1"
       d="m 354.687,291.095 v 17.686 h 45.156 v 95.283 c -11.323,3.624 -19.53,14.26 -19.53,26.78 -0.002,15.506 12.585,28.063 28.092,28.063 15.507,0 28.063,-12.557 28.063,-28.062 0,-12.32 -7.935,-22.778 -18.97,-26.563 V 291.095 h -62.814 z"
       id="path14" />
    <path
       style="fill:#d1fffe;fill-opacity:1"
       d="m 122.749,291.095 v 84.217 c -11.498,3.513 -19.875,14.2 -19.875,26.844 0,15.506 12.587,28.094 28.094,28.094 15.506,0 28.06,-12.588 28.06,-28.094 0,-12.194 -7.766,-22.564 -18.624,-26.437 v -66.94 h 19.156 v -17.686 h -36.81 z"
       id="path13" />
    <path
       style="fill:#d1fffe;fill-opacity:1"
       d="m 105.593,254.625 v 17.688 h 53.97 v -17.688 z"
       id="path12" />
    <path
       style="fill:#d1fffe;fill-opacity:1"
       d="m 454.655,239.345 c -10.898,0 -20.342,6.21 -25,15.28 h -74.97 l 0.002,17.688 H 427 c 2.325,13.168 13.824,23.187 27.656,23.187 15.507,0 28.063,-12.588 28.063,-28.094 0,-15.507 -12.557,-28.062 -28.064,-28.062 z"
       id="path11" />
    <path
       style="fill:#d1fffe;fill-opacity:1"
       d="m 354.687,217.375 v 17.656 h 53.968 v -17.655 h -53.97 z"
       id="path10" />
    <path
       style="fill:#d1fffe;fill-opacity:1"
       d="m 53.124,217.375 v 89.969 c -11.49,3.512 -19.844,14.198 -19.844,26.844 0,15.505 12.557,28.093 28.064,28.093 15.507,0 28.093,-12.587 28.093,-28.092 0,-12.195 -7.79,-22.564 -18.656,-26.438 v -72.72 h 88.782 V 217.376 H 53.124 Z"
       id="path9" />
    <path
       style="fill:#ffffff;fill-opacity:1"
       d="m 177.219,164.127 v 159.718 h 159.81 V 164.125 H 177.22 Z m 17.56,15.655 h 17.657 v 78.595 l 32.407,32.406 h 75.28 v 17.658 H 237.5 l -2.594,-2.594 -10.75,-10.75 c -1.033,7.385 -7.36,13.062 -15.03,13.062 -8.392,0 -15.19,-6.796 -15.19,-15.187 0,-7.682 5.696,-13.98 13.095,-15 l -9.655,-9.658 -2.594,-2.593 V 179.78 Z m 54.94,0.157 h 17.686 v 55.313 h 52.53 l 0.002,17.688 H 249.72 v -73 z"
       id="path8" />
    <path
       style="fill:#d1fffe;fill-opacity:1"
       d="m 30.187,123.657 v 17.688 H 96.75 v 55.594 h 62.814 V 179.28 h -45.126 v -55.624 h -84.25 z"
       id="path7" />
    <path
       style="fill:#d1fffe;fill-opacity:1"
       d="m 454.656,96.53 c -15.507,0 -28.094,12.588 -28.094,28.095 0,13.083 8.948,24.074 21.063,27.188 v 27.468 h -92.938 v 17.657 h 110.624 v -46.342 c 10.223,-4.192 17.407,-14.233 17.407,-25.97 0,-15.507 -12.557,-28.094 -28.064,-28.094 z"
       id="path6" />
    <path
       style="fill:#d1fffe;fill-opacity:1"
       d="m 266.124,92.5 v 53.938 h 17.657 V 92.5 h -17.655 z"
       id="path5" />
    <path
       style="fill:#d1fffe;fill-opacity:1"
       d="m 313.844,32.844 c -15.507,0 -28.063,12.586 -28.063,28.093 0,12.124 7.677,22.45 18.44,26.376 v 59.124 h 17.655 V 87.844 c 11.596,-3.452 20.063,-14.193 20.063,-26.906 0,-15.508 -12.587,-28.094 -28.094,-28.094 z"
       id="path4" />
    <path
       style="fill:#d1fffe;fill-opacity:1"
       d="M 120.594,32.844 C 105.087,32.844 92.5,45.43 92.5,60.937 92.5,76.444 105.087,89 120.594,89 c 12.655,0 23.34,-8.372 26.844,-19.875 h 44.937 v 77.313 h 17.688 v -95 H 147.03 C 143.142,40.601 132.768,32.845 120.594,32.845 Z"
       id="path3" />
    <path
       style="fill:#d1fffe;fill-opacity:1"
       d="m 228.844,32.22 v 114.218 h 17.687 V 32.218 h -17.686 z"
       id="path2" />
  </g>
</svg>
