<?xml version="1.0" encoding="UTF-8" standalone="no"?>
<!-- Created with Inkscape (http://www.inkscape.org/) -->

<svg
   width="512"
   height="512"
   viewBox="0 0 135.46667 135.46667"
   version="1.1"
   id="svg1"
   xml:space="preserve"
   inkscape:version="1.3.2 (091e20e, 2023-11-25, custom)"
   sodipodi:docname="arcane.svg"
   inkscape:export-filename="arcane.png"
   inkscape:export-xdpi="96"
   inkscape:export-ydpi="96"
   xmlns:inkscape="http://www.inkscape.org/namespaces/inkscape"
   xmlns:sodipodi="http://sodipodi.sourceforge.net/DTD/sodipodi-0.dtd"
   xmlns="http://www.w3.org/2000/svg"
   xmlns:svg="http://www.w3.org/2000/svg"><sodipodi:namedview
     id="namedview1"
     pagecolor="#000000"
     bordercolor="#000000"
     borderopacity="0.25"
     inkscape:showpageshadow="2"
     inkscape:pageopacity="0.0"
     inkscape:pagecheckerboard="0"
     inkscape:deskcolor="#d1d1d1"
     inkscape:document-units="mm"
     inkscape:zoom="2.0930361"
     inkscape:cx="291.68155"
     inkscape:cy="207.59317"
     inkscape:window-width="2560"
     inkscape:window-height="1369"
     inkscape:window-x="2552"
     inkscape:window-y="-8"
     inkscape:window-maximized="1"
     inkscape:current-layer="layer1"
     inkscape:export-bgcolor="#00000000" /><defs
     id="defs1" /><g
     inkscape:label="Lager 1"
     inkscape:groupmode="layer"
     id="layer1"><circle
       style="fill:none;fill-opacity:1;stroke:#ffffff;stroke-width:8;stroke-dasharray:none;stroke-opacity:1"
       id="path1"
       cx="67.73333"
       cy="67.73333"
       r="50"
       inkscape:label="Large Circle" /><path
       id="path13"
       style="fill:#ffffff;fill-opacity:1;stroke:#000000;stroke-width:4.72637;stroke-dasharray:none;stroke-opacity:1"
       d="M 67.733008,9.6253773 A 20.137067,31.554207 0 0 0 47.596519,41.179707 20.137067,31.554207 0 0 0 47.975043,46.919448 20.137067,31.554207 0 0 1 67.733008,21.10487 20.137067,31.554207 0 0 1 87.512437,46.769637 20.137067,31.554207 0 0 0 87.870147,41.179707 20.137067,31.554207 0 0 0 67.733008,9.6253773 Z" /><path
       id="path16"
       style="fill:#ffffff;fill-opacity:1;stroke:#000000;stroke-width:4.72637;stroke-dasharray:none;stroke-opacity:1"
       d="M 67.73366,126.56066 A 20.137067,31.554198 0 0 0 87.870148,95.006346 20.137067,31.554198 0 0 0 87.491625,89.26661 20.137067,31.554198 0 0 1 67.73366,115.08117 20.137067,31.554198 0 0 1 47.954233,89.416421 20.137067,31.554198 0 0 0 47.596519,95.006346 20.137067,31.554198 0 0 0 67.73366,126.56066 Z" /><circle
       style="fill:#000000;fill-opacity:1;stroke:#ffffff;stroke-width:10;stroke-dasharray:none;stroke-opacity:1"
       id="path5"
       cx="67.73333"
       cy="67.73333"
       inkscape:label="Center Circle"
       r="24.438585" /><path
       id="circle1"
       style="fill:#ffffff;fill-opacity:1;stroke:#ffffff;stroke-width:0;stroke-dasharray:none;stroke-opacity:1"
       inkscape:label="Center Circle"
       d="M 67.4211,79.818306 A 14.678496,16.49177 76.963638 0 0 79.108907,61.251594 14.678496,16.49177 76.963638 0 0 67.333703,51.298959 14.678496,16.49177 76.963638 0 1 73.588524,59.184772 14.678496,16.49177 76.963638 0 1 61.900993,77.751405 14.678496,16.49177 76.963638 0 1 53.649384,78.151749 14.678496,16.49177 76.963638 0 0 67.4211,79.818306 Z" /><g
       id="g6"
       transform="matrix(1.0373261,0,0,1.0373261,-1.9267465,-1.9267465)"><circle
         style="fill:#f9f9f9;fill-opacity:1;stroke:#000000;stroke-width:0;stroke-dasharray:none;stroke-opacity:1"
         id="path3"
         cx="41.607235"
         cy="41.624897"
         inkscape:label="Corner Circle"
         r="3.8560681" /><circle
         style="fill:#f9f9f9;fill-opacity:1;stroke:#000000;stroke-width:0;stroke-dasharray:none;stroke-opacity:1"
         id="circle3"
         cx="91.663139"
         cy="41.624897"
         inkscape:label="Corner Circle"
         r="3.8560681" /><circle
         style="fill:#f9f9f9;fill-opacity:1;stroke:#000000;stroke-width:0;stroke-dasharray:none;stroke-opacity:1"
         id="circle4"
         cx="92.699768"
         cy="92.682106"
         inkscape:label="Corner Circle"
         r="3.8560681" /><circle
         style="fill:#f9f9f9;fill-opacity:1;stroke:#000000;stroke-width:0;stroke-dasharray:none;stroke-opacity:1"
         id="circle5"
         cx="41.607235"
         cy="91.639633"
         inkscape:label="Corner Circle"
         r="3.8560681" /></g></g></svg>
