<?xml version="1.0" encoding="UTF-8" standalone="no"?>
<!-- Created with Inkscape (http://www.inkscape.org/) -->

<svg
   width="512"
   height="512"
   viewBox="0 0 135.46667 135.46667"
   version="1.1"
   id="svg1"
   xml:space="preserve"
   inkscape:version="1.3.2 (091e20e, 2023-11-25, custom)"
   sodipodi:docname="chemical.svg"
   inkscape:export-filename="precision.png"
   inkscape:export-xdpi="96"
   inkscape:export-ydpi="96"
   xmlns:inkscape="http://www.inkscape.org/namespaces/inkscape"
   xmlns:sodipodi="http://sodipodi.sourceforge.net/DTD/sodipodi-0.dtd"
   xmlns="http://www.w3.org/2000/svg"
   xmlns:svg="http://www.w3.org/2000/svg"><sodipodi:namedview
     id="namedview1"
     pagecolor="#000000"
     bordercolor="#000000"
     borderopacity="0.25"
     inkscape:showpageshadow="2"
     inkscape:pageopacity="0.0"
     inkscape:pagecheckerboard="0"
     inkscape:deskcolor="#d1d1d1"
     inkscape:document-units="mm"
     inkscape:zoom="0.74"
     inkscape:cx="79.054054"
     inkscape:cy="391.21622"
     inkscape:window-width="2560"
     inkscape:window-height="1369"
     inkscape:window-x="2552"
     inkscape:window-y="-8"
     inkscape:window-maximized="1"
     inkscape:current-layer="layer1"
     inkscape:export-bgcolor="#00000000" /><defs
     id="defs1"><pattern
       id="EMFhbasepattern"
       patternUnits="userSpaceOnUse"
       width="6"
       height="6"
       x="0"
       y="0" /><pattern
       id="EMFhbasepattern-9"
       patternUnits="userSpaceOnUse"
       width="6"
       height="6"
       x="0"
       y="0" /></defs><g
     inkscape:label="Lager 1"
     inkscape:groupmode="layer"
     id="layer1"><circle
       style="fill:none;fill-opacity:1;stroke:#ffffff;stroke-width:8;stroke-dasharray:none;stroke-opacity:1"
       id="path1"
       cx="67.73333"
       cy="67.73333"
       r="50"
       inkscape:label="Large Circle" /><g
       id="g6"
       transform="matrix(1.0373261,0,0,1.0373261,-1.9267465,-1.9267465)"><circle
         style="fill:#f9f9f9;fill-opacity:1;stroke:#000000;stroke-width:0;stroke-dasharray:none;stroke-opacity:1"
         id="path3"
         cx="41.607235"
         cy="41.624897"
         inkscape:label="Corner Circle"
         r="3.8560681" /><circle
         style="fill:#f9f9f9;fill-opacity:1;stroke:#000000;stroke-width:0;stroke-dasharray:none;stroke-opacity:1"
         id="circle3"
         cx="91.663139"
         cy="41.624897"
         inkscape:label="Corner Circle"
         r="3.8560681" /><circle
         style="fill:#f9f9f9;fill-opacity:1;stroke:#000000;stroke-width:0;stroke-dasharray:none;stroke-opacity:1"
         id="circle4"
         cx="92.699768"
         cy="92.682106"
         inkscape:label="Corner Circle"
         r="3.8560681" /><circle
         style="fill:#f9f9f9;fill-opacity:1;stroke:#000000;stroke-width:0;stroke-dasharray:none;stroke-opacity:1"
         id="circle5"
         cx="41.607235"
         cy="91.639633"
         inkscape:label="Corner Circle"
         r="3.8560681" /></g><rect
       style="fill:#f9f9f9;fill-opacity:1;stroke:#000000;stroke-width:6.32786;stroke-dasharray:none;stroke-opacity:1"
       id="rect5"
       width="15.67214"
       height="33.966816"
       x="108.05147"
       y="50.749924"
       ry="7.4496522"
       rx="8.1448307"
       inkscape:label="Top Line" /><rect
       style="fill:#f9f9f9;fill-opacity:1;stroke:#000000;stroke-width:6.32786;stroke-dasharray:none;stroke-opacity:1"
       id="rect5-6"
       width="15.67214"
       height="33.966816"
       x="12.141115"
       y="-84.716743"
       ry="7.4496522"
       rx="8.1448307"
       inkscape:label="Top Line"
       transform="rotate(90)" /><rect
       style="fill:#f9f9f9;fill-opacity:1;stroke:#000000;stroke-width:6.32786;stroke-dasharray:none;stroke-opacity:1"
       id="rect6"
       width="15.67214"
       height="33.966816"
       x="11.271135"
       y="50.749924"
       ry="7.4496522"
       rx="8.1448307"
       inkscape:label="Bottom Line" /><g
       id="g2"
       transform="matrix(1.3105507,0,0,1.2178783,-28.996042,-26.93923)"
       inkscape:label="Skull"><g
         id="g82"><path
           style="fill:#ffffff;fill-opacity:1"
           d="M 64.17973,101.64 V 89.548726 c -3.731784,0.204648 -7.196251,-0.512298 -9.60335,-3.599896 -2.21254,-3.127112 -2.33934,-6.86747 -0.32246,-9.511733 l 0.71804,-0.9414 -0.61205,-1.372847 C 51.730547,68.225108 57.047643,54.021005 72.71078,53.140957 87.575753,52.305756 96.264357,65.310692 93.14659,74.249356 l -0.43069,1.234809 0.79634,1.099321 c 2.17177,2.998036 1.50678,7.855659 -1.44829,10.579549 -2.306856,2.343262 -5.525593,2.298421 -8.57231,2.457784 l 0.02235,11.988941 c -6.249536,0.0609 -13.081919,0.002 -19.334257,0.0303 z"
           id="path2"
           sodipodi:nodetypes="ccsscssscsscccc" /><path
           id="rect78"
           style="fill:#000000;fill-opacity:1;stroke:#000000;stroke-width:0;stroke-dasharray:none"
           d="m 73.761651,83.948655 c -0.07293,-0.003 -0.134844,0.01763 -0.177715,0.06421 l -0.07075,0.07687 c -0.07245,0.05085 -0.145169,0.114308 -0.214342,0.18946 l -3.682929,4.001278 c -0.272965,0.29656 -0.38233,0.655369 -0.245137,0.80442 l 1.656046,1.799193 c 0.137192,0.149051 0.467448,0.03022 0.740412,-0.266333 l 2.044361,-2.221073 2.044363,2.221076 c 0.272967,0.296561 0.603222,0.415377 0.740412,0.266328 l 1.656049,-1.799196 c 0.13719,-0.14905 0.02783,-0.507852 -0.245138,-0.804413 l -3.682932,-4.001281 c -0.06917,-0.07515 -0.141887,-0.138606 -0.214341,-0.189461 l -0.07075,-0.07686 c -0.05233,-0.05686 -0.133045,-0.07442 -0.227663,-0.05834 -0.01711,-0.0029 -0.03385,-0.0053 -0.04994,-0.0059 z" /><circle
           style="fill:#000000;fill-opacity:1;stroke:#000000;stroke-width:0;stroke-dasharray:none"
           id="path79"
           cx="63.812065"
           cy="77.92337"
           r="5.8547997" /><circle
           style="fill:#000000;fill-opacity:1;stroke:#000000;stroke-width:0;stroke-dasharray:none"
           id="circle79"
           cx="83.812065"
           cy="77.92337"
           r="5.8547997" /><g
           id="g81"
           transform="translate(-0.20463968,-0.22800676)"><rect
             style="fill:#000000;fill-opacity:1;stroke:#000000;stroke-width:0;stroke-dasharray:none"
             id="rect79"
             width="3.0970757"
             height="5.3724785"
             x="66.715988"
             y="97.224182"
             rx="0.43483394"
             ry="0.86517882" /><rect
             style="fill:#000000;fill-opacity:1;stroke:#000000;stroke-width:0;stroke-dasharray:none"
             id="rect80"
             width="3.0970757"
             height="5.3724785"
             x="72.467705"
             y="97.097771"
             rx="0.43483394"
             ry="0.86517882" /><rect
             style="fill:#000000;fill-opacity:1;stroke:#000000;stroke-width:0;stroke-dasharray:none"
             id="rect81"
             width="3.0970757"
             height="5.3724785"
             x="78.219414"
             y="97.097771"
             rx="0.43483394"
             ry="0.86517882" /></g></g></g><circle
       style="fill:#000000;fill-opacity:1;stroke:#000000;stroke-width:0;stroke-dasharray:none;stroke-opacity:1"
       id="circle4-2"
       cx="55.256298"
       cy="48.871666"
       inkscape:label="Corner Circle"
       r="4" /><rect
       style="fill:#f9f9f9;fill-opacity:1;stroke:#000000;stroke-width:6.32786;stroke-dasharray:none;stroke-opacity:1"
       id="rect82"
       width="15.67214"
       height="33.966816"
       x="107.92033"
       y="-84.716743"
       ry="7.4496522"
       rx="8.1448307"
       inkscape:label="Top Line"
       transform="rotate(90)" /></g></svg>
