<?xml version="1.0" encoding="UTF-8" standalone="no"?>
<!-- Created with Inkscape (http://www.inkscape.org/) -->

<svg
   width="512"
   height="512"
   viewBox="0 0 135.46667 135.46667"
   version="1.1"
   id="svg1"
   xml:space="preserve"
   inkscape:version="1.3.2 (091e20e, 2023-11-25, custom)"
   sodipodi:docname="offense.svg"
   inkscape:export-filename="offense.png"
   inkscape:export-xdpi="96"
   inkscape:export-ydpi="96"
   xmlns:inkscape="http://www.inkscape.org/namespaces/inkscape"
   xmlns:sodipodi="http://sodipodi.sourceforge.net/DTD/sodipodi-0.dtd"
   xmlns="http://www.w3.org/2000/svg"
   xmlns:svg="http://www.w3.org/2000/svg"><sodipodi:namedview
     id="namedview1"
     pagecolor="#000000"
     bordercolor="#000000"
     borderopacity="0.25"
     inkscape:showpageshadow="2"
     inkscape:pageopacity="0.0"
     inkscape:pagecheckerboard="0"
     inkscape:deskcolor="#d1d1d1"
     inkscape:document-units="mm"
     inkscape:zoom="1.046518"
     inkscape:cx="500.23029"
     inkscape:cy="331.09798"
     inkscape:window-width="2560"
     inkscape:window-height="1369"
     inkscape:window-x="2552"
     inkscape:window-y="-8"
     inkscape:window-maximized="1"
     inkscape:current-layer="g2"
     inkscape:export-bgcolor="#00000000" /><defs
     id="defs1"><pattern
       id="EMFhbasepattern"
       patternUnits="userSpaceOnUse"
       width="6"
       height="6"
       x="0"
       y="0" /></defs><g
     inkscape:label="Lager 1"
     inkscape:groupmode="layer"
     id="layer1"><circle
       style="fill:none;fill-opacity:1;stroke:#ffffff;stroke-width:8;stroke-dasharray:none;stroke-opacity:1"
       id="path1"
       cx="67.73333"
       cy="67.73333"
       r="50"
       inkscape:label="Large Circle" /><g
       id="g6"
       transform="matrix(1.0373261,0,0,1.0373261,-1.9267465,-1.9267465)"><circle
         style="fill:#f9f9f9;fill-opacity:1;stroke:#000000;stroke-width:0;stroke-dasharray:none;stroke-opacity:1"
         id="path3"
         cx="41.607235"
         cy="41.624897"
         inkscape:label="Corner Circle"
         r="3.8560681" /><circle
         style="fill:#f9f9f9;fill-opacity:1;stroke:#000000;stroke-width:0;stroke-dasharray:none;stroke-opacity:1"
         id="circle3"
         cx="91.663139"
         cy="41.624897"
         inkscape:label="Corner Circle"
         r="3.8560681" /><circle
         style="fill:#f9f9f9;fill-opacity:1;stroke:#000000;stroke-width:0;stroke-dasharray:none;stroke-opacity:1"
         id="circle4"
         cx="92.699768"
         cy="92.682106"
         inkscape:label="Corner Circle"
         r="3.8560681" /><circle
         style="fill:#f9f9f9;fill-opacity:1;stroke:#000000;stroke-width:0;stroke-dasharray:none;stroke-opacity:1"
         id="circle5"
         cx="41.607235"
         cy="91.639633"
         inkscape:label="Corner Circle"
         r="3.8560681" /></g><g
       id="g1"
       transform="translate(-13.944257,6.0711152)"
       style="fill:#ffffff;fill-opacity:1"><g
         id="g3"
         transform="matrix(0.26458333,0,0,0.26458333,164.52318,1.1574338)"><g
           class=""
           id="g2"
           transform="matrix(0.58204655,0,0,0.5895417,-462.12111,75.988202)"><path
             d="m 256,25 c -13.926,0 -31.544,1.105 -45.613,5.2 -14.07,4.094 -23.213,10.325 -25.662,20.007 -1.661,6.566 0.726,15.172 7.03,24.953 6.306,9.782 16.126,20.111 26.401,29.264 16.976,15.121 32.104,25.063 37.844,28.752 5.74,-3.689 20.868,-13.631 37.844,-28.752 10.275,-9.153 20.095,-19.482 26.4,-29.264 6.305,-9.781 8.692,-18.387 7.031,-24.953 C 324.826,40.525 315.683,34.294 301.613,30.199 287.543,26.105 269.926,25 256,25 Z m -39,102.027 v 12.758 l 39,32.5 39,-32.5 v -12.758 c -18.142,14.699 -34.277,24.633 -34.277,24.633 l -4.723,2.912 -4.723,-2.912 c 0,0 -16.135,-9.934 -34.277,-24.633 z m 0,36.188 v 41.57 L 241.941,184 Z m 78,0 L 270.059,184 295,204.785 Z m -39,32.5 -39,32.5 V 231 h 19.273 L 249.637,217.637 256,211.27 275.729,231 H 295 v -2.785 z m 175.771,24.783 c -15.255,13.207 -31.532,20.581 -48.66,24.348 -19.619,4.314 -40.22,4.227 -63.14,4.154 h -26.244 l 14,14 H 384 v 18 h -74.904 l -8.4,14 H 352 c 31.07,0 60.695,13.027 79.646,28.627 L 483.273,272 Z M 80.219,220.508 28.727,272 80.354,323.627 C 99.305,308.027 128.93,295 160,295 h 51.305 l -8.4,-14 H 128 v -18 h 76.273 l 14,-14 H 192 c -24,0 -44.575,0.091 -63.953,-4.215 -16.904,-3.756 -32.736,-11.132 -47.828,-24.277 z M 256,236.727 219.332,273.395 256,334.508 292.668,273.395 Z M 201,313 201,554.03 247,574.37334 247,354.492 222.105,313 Z m 88.895,0 L 265,354.492 v 201.83021 l 46,3.43831 L 311,313 Z"
             fill="#ffffff"
             fill-opacity="1"
             id="path2"
             sodipodi:nodetypes="scccccccccsccccccccccccccccccccccccccccccccccccsccccccsccccccsccccccccccccccccccc" /></g></g></g></g></svg>
