<?xml version="1.0" encoding="UTF-8" standalone="no"?>
<!-- Created with Inkscape (http://www.inkscape.org/) -->

<svg
   width="512"
   height="512"
   viewBox="0 0 135.46667 135.46667"
   version="1.1"
   id="svg1"
   xml:space="preserve"
   inkscape:version="1.3.2 (091e20e, 2023-11-25, custom)"
   sodipodi:docname="force.svg"
   inkscape:export-filename="force.png"
   inkscape:export-xdpi="96"
   inkscape:export-ydpi="96"
   xmlns:inkscape="http://www.inkscape.org/namespaces/inkscape"
   xmlns:sodipodi="http://sodipodi.sourceforge.net/DTD/sodipodi-0.dtd"
   xmlns="http://www.w3.org/2000/svg"
   xmlns:svg="http://www.w3.org/2000/svg"><sodipodi:namedview
     id="namedview1"
     pagecolor="#000000"
     bordercolor="#000000"
     borderopacity="0.25"
     inkscape:showpageshadow="2"
     inkscape:pageopacity="0.0"
     inkscape:pagecheckerboard="0"
     inkscape:deskcolor="#d1d1d1"
     inkscape:document-units="mm"
     inkscape:zoom="1.4778532"
     inkscape:cx="502.7563"
     inkscape:cy="328.51707"
     inkscape:window-width="2560"
     inkscape:window-height="1369"
     inkscape:window-x="2552"
     inkscape:window-y="-8"
     inkscape:window-maximized="1"
     inkscape:current-layer="layer1"
     inkscape:export-bgcolor="#00000000" /><defs
     id="defs1" /><g
     inkscape:label="Lager 1"
     inkscape:groupmode="layer"
     id="layer1"><path
       id="path8"
       style="fill:#ffffff;stroke:#000000;stroke-width:0"
       inkscape:label="Fist"
       d="m 62.702045,37.184107 c -0.795803,-0.0577 -1.608368,0.07051 -2.348729,0.42972 -1.086511,0.527151 -1.725785,1.486337 -2.389439,2.384664 -1.340675,1.81476 -4.116785,4.664744 -4.946921,6.711665 l 8.888621,3.114928 c 1.469218,-1.967701 4.810391,-5.888866 5.119695,-8.278754 0.302663,-2.338552 -1.935823,-4.189129 -4.323227,-4.362223 z m 9.919465,6.129163 c -0.684711,0.05573 -1.364693,0.255146 -1.983894,0.619137 -1.983324,1.165878 -5.167119,4.898049 -6.094308,6.838013 4.404009,0.516676 7.030225,5.492446 4.698629,9.223642 1.342166,-0.532939 1.679216,-1.770268 2.482358,-2.833631 1.343881,-1.779291 2.492506,-3.68197 3.797111,-5.485997 1.263479,-1.747143 2.722742,-3.28518 1.938487,-5.485997 C 76.77934,44.278622 74.675641,43.146068 72.62151,43.31327 Z M 48.979206,48.44588 C 46.470263,49.00324 36.999214,62.384434 36.674999,64.898218 l 17.446357,23.210532 -0.335085,26.06213 29.258154,-2.58114 C 82.310552,98.759179 82.544173,89.549712 89.381638,78.77342 68.804508,69.904768 68.830795,69.944741 56.861706,64.835715 L 52.2502,55.895301 h 0.311599 c 1.769529,2.99117 6.882563,6.147863 9.99302,5.722839 2.570938,-0.351303 3.9548,-3.78116 3.354023,-6.426788 C 65.550867,53.614951 52.380999,48.036823 48.979206,48.44588 Z m 33.1891,1.615691 c -1.531895,0.317454 -2.515132,1.454979 -3.302312,2.598109 -1.237287,1.79676 -2.487987,3.604384 -3.820597,5.344642 -0.92569,1.208837 -2.156394,2.604137 -2.4646,4.079513 -0.573278,2.744215 2.406319,4.699448 5.225142,4.147362 1.672714,-0.327612 2.628659,-1.66331 3.491778,-2.880819 1.339095,-1.888929 2.713471,-3.761336 4.091481,-5.627353 0.688202,-0.931923 1.748001,-1.978478 2.016779,-3.094266 0.660872,-2.743434 -2.265811,-5.18305 -5.237671,-4.567188 z m 9.349507,6.751126 c -3.19292,0.661672 -5.138284,5.126667 -6.803478,7.381572 -0.687537,0.931004 -1.651477,1.964932 -1.871159,3.094266 -0.47281,2.430565 2.079545,4.706156 4.778883,4.295786 3.417548,-0.519555 5.404142,-4.882808 7.115084,-7.248697 0.671929,-0.92915 1.654067,-1.980157 1.871152,-3.095681 0.521991,-2.682465 -2.098894,-5.047193 -5.090482,-4.427246 z"
       sodipodi:nodetypes="sscccssssccsssscccccccccsscssccssscsssssscs" /><circle
       style="fill:none;fill-opacity:1;stroke:#000000;stroke-width:7.11111;stroke-dasharray:none;stroke-opacity:1"
       id="path1-3"
       cx="67.73333"
       cy="67.73333"
       inkscape:label="Large Circle"
       r="44.444443" /><circle
       style="fill:none;fill-opacity:1;stroke:#ffffff;stroke-width:8;stroke-dasharray:none;stroke-opacity:1"
       id="circle4"
       cx="67.73333"
       cy="67.73333"
       r="50"
       inkscape:label="Large Circle" /><rect
       style="fill:#000000;fill-opacity:1;stroke:#000000;stroke-width:0"
       id="rect1"
       width="6"
       height="22.200001"
       x="94.621445"
       y="-36.395641"
       transform="rotate(30)" /><rect
       style="fill:#000000;fill-opacity:1;stroke:#000000;stroke-width:0"
       id="rect2"
       width="6"
       height="22.199995"
       x="64.73333"
       y="5.1919341" /><rect
       style="fill:#000000;fill-opacity:1;stroke:#000000;stroke-width:0"
       id="rect2-9"
       width="6"
       height="22.199995"
       x="64.73333"
       y="109.02087" /><rect
       style="fill:#000000;fill-opacity:1;stroke:#000000;stroke-width:0"
       id="rect3"
       width="6"
       height="22.199995"
       x="17.740232"
       y="31.940792"
       transform="rotate(-30)" /><rect
       style="fill:#000000;fill-opacity:1;stroke:#000000;stroke-width:0"
       id="rect4"
       width="6"
       height="22.200001"
       x="-33.374741"
       y="32.161213"
       transform="rotate(-60)" /><rect
       style="fill:#000000;fill-opacity:1;stroke:#000000;stroke-width:0"
       id="rect5"
       width="6"
       height="22.199995"
       x="95.190514"
       y="-85.298485"
       transform="rotate(60)" /><g
       id="g6"
       transform="matrix(1.0373261,0,0,1.0373261,-1.9267465,-1.9267465)"><circle
         style="fill:#f9f9f9;fill-opacity:1;stroke:#000000;stroke-width:0;stroke-dasharray:none;stroke-opacity:1"
         id="path3"
         cx="41.607235"
         cy="41.624897"
         inkscape:label="Corner Circle"
         r="3.8560681" /><circle
         style="fill:#f9f9f9;fill-opacity:1;stroke:#000000;stroke-width:0;stroke-dasharray:none;stroke-opacity:1"
         id="circle3"
         cx="91.663139"
         cy="41.624897"
         inkscape:label="Corner Circle"
         r="3.8560681" /><circle
         style="fill:#f9f9f9;fill-opacity:1;stroke:#000000;stroke-width:0;stroke-dasharray:none;stroke-opacity:1"
         id="circle4-7"
         cx="92.699768"
         cy="92.682106"
         inkscape:label="Corner Circle"
         r="3.8560681" /><circle
         style="fill:#f9f9f9;fill-opacity:1;stroke:#000000;stroke-width:0;stroke-dasharray:none;stroke-opacity:1"
         id="circle5"
         cx="41.607235"
         cy="91.639633"
         inkscape:label="Corner Circle"
         r="3.8560681" /></g></g></svg>
