<?xml version="1.0" encoding="UTF-8" standalone="no"?>
<!-- Created with Inkscape (http://www.inkscape.org/) -->

<svg
   width="512"
   height="512"
   viewBox="0 0 135.46667 135.46667"
   version="1.1"
   id="svg1"
   xml:space="preserve"
   inkscape:version="1.3.2 (091e20e, 2023-11-25, custom)"
   sodipodi:docname="offense.svg"
   inkscape:export-filename="offense.png"
   inkscape:export-xdpi="96"
   inkscape:export-ydpi="96"
   xmlns:inkscape="http://www.inkscape.org/namespaces/inkscape"
   xmlns:sodipodi="http://sodipodi.sourceforge.net/DTD/sodipodi-0.dtd"
   xmlns="http://www.w3.org/2000/svg"
   xmlns:svg="http://www.w3.org/2000/svg"><sodipodi:namedview
     id="namedview1"
     pagecolor="#000000"
     bordercolor="#000000"
     borderopacity="0.25"
     inkscape:showpageshadow="2"
     inkscape:pageopacity="0.0"
     inkscape:pagecheckerboard="0"
     inkscape:deskcolor="#d1d1d1"
     inkscape:document-units="mm"
     inkscape:zoom="1.4799999"
     inkscape:cx="255.74325"
     inkscape:cy="261.82433"
     inkscape:window-width="2560"
     inkscape:window-height="1369"
     inkscape:window-x="2552"
     inkscape:window-y="-8"
     inkscape:window-maximized="1"
     inkscape:current-layer="svg1"
     inkscape:export-bgcolor="#00000000"
     showgrid="false" /><defs
     id="defs1"><pattern
       id="EMFhbasepattern"
       patternUnits="userSpaceOnUse"
       width="6"
       height="6"
       x="0"
       y="0" /></defs><path
     id="path12"
     style="fill:#ffffff;fill-opacity:1"
     d="M 201.00144 313.00116 L 201.00144 554.02856 L 247.00024 574.37341 L 247.00024 563.99061 C 247.06021 563.99114 247.11798 564.00055 247.17808 564.00055 L 265.38902 564.00055 C 271.07003 564.00055 276.15281 561.61089 279.70743 557.80533 L 310.99856 559.75997 L 310.99856 313.00116 L 289.89508 313.00116 L 264.99976 354.49261 L 264.96956 354.83715 L 247.17808 354.83715 C 247.11798 354.83715 247.06021 354.84656 247.00024 354.84709 L 247.00024 354.49261 L 222.10492 313.00116 L 201.00144 313.00116 z "
     transform="matrix(0.15399981,0,0,0.15598291,28.309382,27.33376)" /><path
     style="fill:#ffffff;fill-opacity:1"
     d="M 256,236.727 219.332,273.395 256,334.508 292.668,273.395 Z"
     transform="matrix(0.15399981,0,0,0.15598291,28.309382,27.33376)"
     id="path10" /><path
     style="fill:#ffffff;fill-opacity:1"
     d="M 80.219,220.508 28.727,272 80.354,323.627 C 99.305,308.027 128.93,295 160,295 h 51.305 l -8.4,-14 1.368,-18 14,-14 H 192 c -24,0 -44.575,0.091 -63.953,-4.215 -16.904,-3.756 -32.736,-11.132 -47.828,-24.277 z"
     transform="matrix(0.15399981,0,0,0.15598291,28.309382,27.33376)"
     id="path9"
     sodipodi:nodetypes="cccsccccscc" /><path
     style="fill:#ffffff;fill-opacity:1"
     d="m 431.771,220.498 c -15.255,13.207 -31.532,20.581 -48.66,24.348 -19.619,4.314 -40.22,4.227 -63.14,4.154 h -26.244 l 14,14 1.369,18 -8.4,14 H 352 c 31.07,0 60.695,13.027 79.646,28.627 L 483.273,272 Z"
     transform="matrix(0.15399981,0,0,0.15598291,28.309382,27.33376)"
     id="path8"
     sodipodi:nodetypes="cccccccsccc" /><path
     id="path7"
     style="fill:#ffffff;fill-opacity:1"
     d="M 217.00102,127.02845 V 230.9989 h 19.27131 C 242.8509,224.4253 249.42669,217.84899 256,211.27026 l 19.72767,19.72864 h 19.27131 V 127.02845 C 278.31354,140.5473 265.29983,148.83629 256,154.57235 c -7.31849,-4.51398 -21.2027,-13.12502 -38.99898,-27.5439 z"
     transform="matrix(0.15399981,0,0,0.15598291,28.309382,27.33376)"
     sodipodi:nodetypes="ccccccccc" /><path
     style="fill:#ffffff;fill-opacity:1"
     d="m 256,25 c -13.926,0 -31.544,1.105 -45.613,5.2 -14.07,4.094 -23.213,10.325 -25.662,20.007 -1.661,6.566 0.726,15.172 7.03,24.953 6.306,9.782 16.126,20.111 26.401,29.264 16.976,15.121 32.104,25.063 37.844,28.752 5.74,-3.689 20.868,-13.631 37.844,-28.752 10.275,-9.153 20.095,-19.482 26.4,-29.264 6.305,-9.781 8.692,-18.387 7.031,-24.953 C 324.826,40.525 315.683,34.294 301.613,30.199 287.543,26.105 269.926,25 256,25 Z"
     transform="matrix(0.15399981,0,0,0.15598291,28.309382,27.33376)"
     id="path2" /><g
     inkscape:label="Lager 1"
     inkscape:groupmode="layer"
     id="layer1"><circle
       style="fill:none;fill-opacity:1;stroke:#ffffff;stroke-width:8;stroke-dasharray:none;stroke-opacity:1"
       id="path1"
       cx="67.73333"
       cy="67.73333"
       r="50"
       inkscape:label="Large Circle" /><g
       id="g6"
       transform="matrix(1.0373261,0,0,1.0373261,-1.9267465,-1.9267465)"><circle
         style="fill:#f9f9f9;fill-opacity:1;stroke:#000000;stroke-width:0;stroke-dasharray:none;stroke-opacity:1"
         id="path3"
         cx="41.607235"
         cy="41.624897"
         inkscape:label="Corner Circle"
         r="3.8560681" /><circle
         style="fill:#f9f9f9;fill-opacity:1;stroke:#000000;stroke-width:0;stroke-dasharray:none;stroke-opacity:1"
         id="circle3"
         cx="91.663139"
         cy="41.624897"
         inkscape:label="Corner Circle"
         r="3.8560681" /><circle
         style="fill:#f9f9f9;fill-opacity:1;stroke:#000000;stroke-width:0;stroke-dasharray:none;stroke-opacity:1"
         id="circle4"
         cx="92.699768"
         cy="92.682106"
         inkscape:label="Corner Circle"
         r="3.8560681" /><circle
         style="fill:#f9f9f9;fill-opacity:1;stroke:#000000;stroke-width:0;stroke-dasharray:none;stroke-opacity:1"
         id="circle5"
         cx="41.607235"
         cy="91.639633"
         inkscape:label="Corner Circle"
         r="3.8560681" /></g></g></svg>
