<?xml version="1.0" encoding="UTF-8" standalone="no"?>
<svg
   viewBox="0 0 512 512"
   style="height: 512px; width: 512px;"
   version="1.1"
   id="svg2"
   sodipodi:docname="physical.svg"
   inkscape:version="1.3.2 (091e20e, 2023-11-25, custom)"
   xmlns:inkscape="http://www.inkscape.org/namespaces/inkscape"
   xmlns:sodipodi="http://sodipodi.sourceforge.net/DTD/sodipodi-0.dtd"
   xmlns="http://www.w3.org/2000/svg"
   xmlns:svg="http://www.w3.org/2000/svg">
  <defs
     id="defs2" />
  <sodipodi:namedview
     id="namedview2"
     pagecolor="#000000"
     bordercolor="#000000"
     borderopacity="0.25"
     inkscape:showpageshadow="2"
     inkscape:pageopacity="0.0"
     inkscape:pagecheckerboard="0"
     inkscape:deskcolor="#d1d1d1"
     inkscape:zoom="2.2910156"
     inkscape:cx="256"
     inkscape:cy="256"
     inkscape:window-width="2560"
     inkscape:window-height="1369"
     inkscape:window-x="2552"
     inkscape:window-y="-8"
     inkscape:window-maximized="1"
     inkscape:current-layer="svg2" />
  <g
     class=""
     transform="translate(0,0)"
     style=""
     id="g2">
    <path
       d="M215.344 22.813L205.03 37.906l71.782 46.375 8.938-12.81c-15.62-23.633-44.153-40.97-70.406-48.657zm-38.47 18.843c-28.32 35.34-79.16 105.16-105.718 145.313 61.96 26.364 113.013 69.562 133.22 119.593 5.064 12.54 8.125 25.566 8.78 38.75 36.873-9.75 80.34-36.93 117.25-70.5 30.105-27.38 55.912-59.115 71.406-87.75L176.875 41.655zm240.657 155.53c-16.836 31.038-43.713 63.084-74.717 91.283-40.21 36.57-87.238 66.474-130.47 76.03-1.09 8.278-3.153 16.543-6.343 24.72-8.91 22.832-26.23 44.633-52.656 64.592 64.678 10.955 135.135-13.105 195.844-53.687 64.21-42.923 116.84-104.112 139.28-157.063l-70.937-45.875zM84.814 213.782L16.5 313.72v143.717l135.875-194.812c-18.23-18.513-41.412-35.295-67.563-48.844z"
       fill="#fff"
       fill-opacity="1"
       id="path2" />
  </g>
</svg>
