<?xml version="1.0" encoding="UTF-8" standalone="no"?>
<svg
   viewBox="0 0 512 512"
   style="height: 512px; width: 512px;"
   version="1.1"
   id="svg2"
   sodipodi:docname="turrets.svg"
   inkscape:version="1.3.2 (091e20e, 2023-11-25, custom)"
   xmlns:inkscape="http://www.inkscape.org/namespaces/inkscape"
   xmlns:sodipodi="http://sodipodi.sourceforge.net/DTD/sodipodi-0.dtd"
   xmlns="http://www.w3.org/2000/svg"
   xmlns:svg="http://www.w3.org/2000/svg">
  <defs
     id="defs2" />
  <sodipodi:namedview
     id="namedview2"
     pagecolor="#000000"
     bordercolor="#000000"
     borderopacity="0.25"
     inkscape:showpageshadow="2"
     inkscape:pageopacity="0.0"
     inkscape:pagecheckerboard="0"
     inkscape:deskcolor="#d1d1d1"
     inkscape:zoom="2.2910156"
     inkscape:cx="256"
     inkscape:cy="256"
     inkscape:window-width="2560"
     inkscape:window-height="1369"
     inkscape:window-x="2552"
     inkscape:window-y="-8"
     inkscape:window-maximized="1"
     inkscape:current-layer="g2" />
  <g
     class=""
     transform="translate(0,0)"
     style=""
     id="g2">
    <path
       d="m 85.405,253.624 -28.5,28.532 68.907,68.906 c -26.29,43.673 -63.53,76.414 -106,103.907 l 28.063,28.06 c 27.807,-42.164 61.758,-78.174 104.094,-105.81 l 68.718,68.717 28.53,-28.53 c -20.962,-12.113 -41.08,-25.5 -59.937,-40.313 17.865,-17.83 35.61,-35.433 53.157,-52.97 l -62.373,-64.468 c -18.28,17.856 -36.602,36.06 -55.158,54.594 -15.068,-18.587 -28.38,-38.758 -39.5,-60.625 z"
       id="path4"
       style="fill:#ffffff;fill-opacity:1"
       sodipodi:nodetypes="cccccccccccccc" />
    <path
       d="m 491.625,14.438 c -83.038,46.28 -154.122,100.78 -221.97,161.156 20.30769,19.21483 40.65748,38.38508 61,57.563 61.802,-66.92 117.6,-136.92 160.97,-218.72 z"
       id="path3"
       style="fill:#ffffff;fill-opacity:1"
       sodipodi:nodetypes="ccccc" />
    <path
       d="m 19.75,14.438 c 65.060498,125.70961 171.04517,231.8804 302.374,362.656 -18.856,14.813 -38.974,28.2 -59.938,40.312 l 28.532,28.53 68.717,-68.717 c 42.337,27.636 76.286,63.646 104.094,105.81 l 28.064,-28.06 c -42.47,-27.493 -79.74,-60.206 -106.03,-103.876 l 68.936,-68.938 -28.53,-28.53 c -11.115,21.853 -24.413,42.015 -39.47,60.593 C 264.08285,191.94701 158.84307,91.960252 19.75,14.437 Z"
       id="path2"
       style="fill:#ffffff;fill-opacity:1"
       sodipodi:nodetypes="ccccccccccccc" />
  </g>
</svg>
