<?xml version="1.0" encoding="UTF-8" standalone="no"?>
<svg
   viewBox="0 0 512 512"
   style="height: 512px; width: 512px;"
   version="1.1"
   id="svg2"
   sodipodi:docname="upgrade.svg"
   inkscape:version="1.3.2 (091e20e, 2023-11-25, custom)"
   inkscape:export-filename="upgrade.png"
   inkscape:export-xdpi="96"
   inkscape:export-ydpi="96"
   xmlns:inkscape="http://www.inkscape.org/namespaces/inkscape"
   xmlns:sodipodi="http://sodipodi.sourceforge.net/DTD/sodipodi-0.dtd"
   xmlns="http://www.w3.org/2000/svg"
   xmlns:svg="http://www.w3.org/2000/svg">
  <defs
     id="defs2" />
  <sodipodi:namedview
     id="namedview2"
     pagecolor="#000000"
     bordercolor="#000000"
     borderopacity="0.25"
     inkscape:showpageshadow="2"
     inkscape:pageopacity="0.0"
     inkscape:pagecheckerboard="0"
     inkscape:deskcolor="#d1d1d1"
     inkscape:zoom="2.2910156"
     inkscape:cx="256"
     inkscape:cy="256"
     inkscape:window-width="2560"
     inkscape:window-height="1369"
     inkscape:window-x="2552"
     inkscape:window-y="-8"
     inkscape:window-maximized="1"
     inkscape:current-layer="svg2" />
  <path
     d="m 196,16 c -16.56854,0 -24,13.431458 -24,30 V 172 H 46 c -16.568542,0 -30,7.43146 -30,24 v 120 c 0,16.56854 13.431458,24 30,24 h 126 v 126 c 0,16.56854 7.43146,30 24,30 h 120 c 16.56854,0 24,-13.43146 24,-30 V 340 h 126 c 16.56854,0 30,-7.43146 30,-24 V 196 c 0,-16.56854 -13.43146,-24 -30,-24 H 340 V 46 c 0,-16.568542 -7.43146,-30 -24,-30 z"
     fill="#ffffff"
     fill-opacity="1"
     id="path2"
     sodipodi:nodetypes="sscsssscsssscsssscsss" />
</svg>
